Coordinates
version=1
nRows=36
nColumns=34
inDegrees=no

Units are S.I. units (second, meters, Newtons, ...)
If the header above contains a line with 'inDegrees', this indicates whether rotational values are in degrees (yes) or radians (no).

endheader
time	pelvis_tilt	pelvis_list	pelvis_rotation	pelvis_tx	pelvis_ty	pelvis_tz	hip_flexion_r	hip_adduction_r	hip_rotation_r	knee_angle_r	ankle_angle_r	subtalar_angle_r	mtp_angle_r	hip_flexion_l	hip_adduction_l	hip_rotation_l	knee_angle_l	ankle_angle_l	subtalar_angle_l	mtp_angle_l	lumbar_extension	lumbar_bending	lumbar_rotation	arm_flex_r	arm_add_r	arm_rot_r	elbow_flex_r	pro_sup_r	arm_flex_l	arm_add_l	arm_rot_l	elbow_flex_l	pro_sup_l
0	0.0245129	0.0296797	0.0573198	-0.156198	0.918229	-0.268826	0.462999	-0.0767619	-0.218964	0.13005	0.151184	0.153892	0	-0.365947	0.00937351	-0.024162	0.241161	0.349742	0.240685	0	-0.127805	-0.00712781	-0.203186	-0.256872	-0.109973	-0.296839	0.510854	2.09	0.251049	-0.201976	0.0181903	1.06674	2.09
0.01	0.0216488	0.0265325	0.055253	-0.141818	0.917438	-0.266857	0.471449	-0.0713773	-0.215175	0.158376	0.118158	0.154497	0	-0.357691	0.00217111	-0.0306531	0.275327	0.325749	0.247597	0	-0.121883	-0.00392077	-0.189627	-0.260526	-0.108017	-0.306965	0.506679	2.09	0.251507	-0.196199	0.0290403	1.05281	2.09
0.02	0.0205606	0.018497	0.0531294	-0.126251	0.916936	-0.264693	0.474666	-0.0602932	-0.211794	0.183783	0.0881187	0.151492	0	-0.353087	-0.0113378	-0.0421134	0.307436	0.298804	0.258775	0	-0.116004	0.00507437	-0.181123	-0.263489	-0.107907	-0.315025	0.502732	2.09	0.243367	-0.190886	0.0318032	1.04446	2.09
0.03	0.0198814	0.00875267	0.0503742	-0.110369	0.916716	-0.262404	0.477746	-0.047353	-0.207989	0.211843	0.0649062	0.147107	0	-0.346549	-0.0271501	-0.0556018	0.343155	0.267781	0.269545	0	-0.110476	0.0160861	-0.174778	-0.264881	-0.108947	-0.32007	0.49864	2.09	0.23066	-0.185623	0.0294818	1.03862	2.09
0.04	0.0191746	-0.00133875	0.0466023	-0.0944645	0.916788	-0.259996	0.48181	-0.0340554	-0.204034	0.243715	0.0514898	0.143281	0	-0.335661	-0.0436258	-0.0696168	0.385191	0.231222	0.276543	0	-0.105338	0.0274304	-0.16862	-0.264912	-0.110464	-0.323442	0.494887	2.09	0.215393	-0.1801	0.0242308	1.03314	2.09
0.05	0.0183033	-0.0113085	0.0417318	-0.0786803	0.917153	-0.257467	0.486485	-0.0207148	-0.199764	0.278358	0.0484105	0.139916	0	-0.319176	-0.0603453	-0.083145	0.434936	0.187839	0.276963	0	-0.10066	0.0384926	-0.161743	-0.263758	-0.112087	-0.326	0.491909	2.09	0.198716	-0.174232	0.0172422	1.02677	2.09
0.06	0.0171068	-0.0211337	0.0358804	-0.0631237	0.917777	-0.25482	0.490822	-0.00697535	-0.194483	0.313285	0.0538945	0.135552	0	-0.296446	-0.0774774	-0.0953764	0.492661	0.136664	0.268337	0	-0.0964096	0.0491873	-0.153829	-0.261533	-0.11363	-0.32819	0.490087	2.09	0.181447	-0.168023	0.00914415	1.01877	2.09
0.07	0.0149353	-0.0298295	0.0295151	-0.0477852	0.918471	-0.252036	0.495794	0.0058966	-0.189152	0.348823	0.0672384	0.131305	0	-0.267117	-0.0940928	-0.104654	0.557203	0.077019	0.247873	0	-0.0916315	0.0581992	-0.145061	-0.25898	-0.114593	-0.330563	0.490084	2.09	0.16388	-0.161878	0.000484613	1.00914	2.09
0.08	0.0136916	-0.0416917	0.0228581	-0.0329606	0.919681	-0.249313	0.494264	0.0237234	-0.181345	0.373957	0.0794882	0.121312	0	-0.233917	-0.114618	-0.111773	0.626148	0.00950247	0.215673	0	-0.089292	0.0709902	-0.135462	-0.254402	-0.116477	-0.33206	0.491244	2.09	0.147561	-0.154347	-0.00925476	0.996171	2.09
0.09	0.0130098	-0.0541099	0.0171267	-0.0183612	0.921082	-0.246581	0.48881	0.042715	-0.173361	0.393404	0.0933032	0.109273	0	-0.198246	-0.136532	-0.114928	0.69613	-0.0627168	0.173819	0	-0.0880119	0.0841034	-0.125972	-0.249586	-0.118178	-0.333279	0.494567	2.09	0.131916	-0.146684	-0.0191345	0.980905	2.09
0.1	0.0141586	-0.0698954	0.0126919	-0.00413061	0.923	-0.244013	0.474171	0.0671268	-0.161101	0.398735	0.101665	0.0883073	0	-0.162577	-0.16216	-0.113982	0.764364	-0.134844	0.124593	0	-0.0896408	0.101156	-0.116615	-0.243677	-0.120493	-0.335068	0.49993	2.09	0.117973	-0.138045	-0.028863	0.961927	2.09
0.11	0.0110233	-0.0781626	0.00692649	0.00962854	0.924366	-0.241498	0.468196	0.0813405	-0.155921	0.41203	0.119566	0.084303	0	-0.120939	-0.178553	-0.109125	0.830334	-0.198138	0.0719743	0	-0.0870567	0.109319	-0.106237	-0.238177	-0.122411	-0.332767	0.506717	2.09	0.104112	-0.130965	-0.0379624	0.942124	2.09
0.12	0.00828888	-0.0853536	0.00228719	0.0229951	0.925967	-0.239277	0.458619	0.0941014	-0.151219	0.419117	0.136776	0.0816518	0	-0.0789992	-0.192387	-0.0998976	0.892021	-0.247601	0.0177927	0	-0.0854994	0.116496	-0.0962966	-0.231992	-0.124596	-0.330323	0.515107	2.09	0.0916963	-0.12414	-0.0457415	0.919204	2.09
0.13	0.00810554	-0.0934154	0.000426812	0.0361251	0.928088	-0.237448	0.441446	0.107436	-0.146435	0.41689	0.15108	0.0772396	0	-0.0392884	-0.205967	-0.0863117	0.948535	-0.278027	-0.0333983	0	-0.0869452	0.12489	-0.088469	-0.224527	-0.127783	-0.325485	0.52376	2.09	0.0806434	-0.117468	-0.052414	0.892998	2.09
0.14	0.00625651	-0.0958958	-0.000747482	0.0488957	0.93003	-0.235869	0.42824	0.113323	-0.144238	0.418578	0.168492	0.078366	0	0.00296602	-0.211466	-0.0698549	1.00053	-0.289025	-0.0827966	0	-0.0866305	0.12694	-0.0814194	-0.21673	-0.130676	-0.318844	0.532897	2.09	0.0701437	-0.112421	-0.0575797	0.865194	2.09
0.15	0.00557762	-0.0972875	0.000503556	0.0614316	0.932272	-0.234659	0.411648	0.116973	-0.143856	0.415977	0.184789	0.0811077	0	0.0445421	-0.213987	-0.050657	1.04679	-0.283442	-0.128273	0	-0.0875589	0.127918	-0.0766058	-0.20767	-0.134226	-0.309865	0.541533	2.09	0.0605238	-0.108056	-0.0618264	0.83498	2.09
0.16	0.0054071	-0.0966357	0.00350489	0.0737675	0.93468	-0.23372	0.393816	0.117648	-0.144552	0.411741	0.200085	0.0845504	0	0.0857375	-0.21249	-0.0302133	1.08672	-0.265942	-0.168292	0	-0.0889163	0.126625	-0.0735512	-0.19759	-0.138028	-0.299156	0.549735	2.09	0.0514056	-0.10465	-0.065402	0.803132	2.09
0.17	0.00501268	-0.094026	0.0076943	0.0859107	0.937173	-0.233001	0.375807	0.115458	-0.14689	0.406401	0.21468	0.0899525	0	0.12699	-0.206935	-0.00965145	1.11986	-0.24362	-0.203923	0	-0.0899093	0.123159	-0.0719023	-0.186631	-0.142107	-0.286637	0.557557	2.09	0.0425075	-0.102155	-0.0685741	0.770069	2.09
0.18	0.0043443	-0.0898178	0.0122588	0.0978939	0.939734	-0.232406	0.357555	0.111266	-0.149946	0.399762	0.228214	0.0966921	0	0.167688	-0.198081	0.00944868	1.14584	-0.220459	-0.233244	0	-0.0905683	0.117878	-0.0709309	-0.1749	-0.146369	-0.272837	0.565201	2.09	0.0335968	-0.100488	-0.0716764	0.736378	2.09
0.19	0.00356248	-0.0837141	0.0164756	0.109714	0.94241	-0.231858	0.338812	0.105152	-0.152693	0.391704	0.240439	0.104245	0	0.206787	-0.185988	0.0255653	1.16398	-0.198775	-0.25516	0	-0.0912512	0.1104	-0.0700932	-0.162218	-0.150589	-0.258093	0.572498	2.09	0.0245735	-0.0997252	-0.0749783	0.702546	2.09
0.2	0.00180831	-0.0782089	0.0196437	0.1215	0.94493	-0.231295	0.320693	0.0993428	-0.1578	0.38281	0.253144	0.11673	0	0.245845	-0.173808	0.0391377	1.17648	-0.179184	-0.270242	0	-0.0906873	0.103603	-0.0684269	-0.149793	-0.155204	-0.243623	0.581033	2.09	0.0147861	-0.0991991	-0.0788358	0.669619	2.09
0.21	0.000357069	-0.0713832	0.0211771	0.133144	0.947582	-0.230612	0.301185	0.0940395	-0.155748	0.371185	0.261137	0.120335	0	0.281923	-0.160135	0.0481169	1.18108	-0.159864	-0.276277	0	-0.0907953	0.0951524	-0.0658178	-0.136262	-0.15967	-0.228434	0.589078	2.09	0.00455602	-0.0995991	-0.0832047	0.637853	2.09
0.22	-0.00147881	-0.0657988	0.0207343	0.144809	0.950062	-0.229805	0.281557	0.0905388	-0.152631	0.358373	0.268381	0.124542	0	0.316791	-0.148126	0.0538492	1.18033	-0.139724	-0.27459	0	-0.0903058	0.0880762	-0.0615882	-0.122981	-0.16445	-0.214214	0.598485	2.09	-0.00680311	-0.100143	-0.0885321	0.608227	2.09
0.23	-0.00297115	-0.0592789	0.0185593	0.156367	0.95255	-0.228891	0.26131	0.0864294	-0.147739	0.344799	0.274709	0.128717	0	0.348642	-0.135609	0.0555178	1.17241	-0.117379	-0.264547	0	-0.0904352	0.0798893	-0.0563469	-0.108887	-0.16894	-0.200662	0.607964	2.09	-0.0188608	-0.101396	-0.0946506	0.580723	2.09
0.24	-0.00421729	-0.0541906	0.0144339	0.167977	0.954829	-0.227838	0.240457	0.0842496	-0.141229	0.330409	0.280261	0.13238	0	0.378387	-0.125672	0.0542781	1.15932	-0.0922889	-0.247246	0	-0.0906051	0.0733038	-0.0496009	-0.0949214	-0.173688	-0.188237	0.618676	2.09	-0.0321402	-0.102798	-0.101666	0.555927	2.09
0.25	-0.00488602	-0.0489524	0.00894112	0.179535	0.956991	-0.226697	0.218993	0.0819681	-0.133568	0.315762	0.28528	0.135787	0	0.404959	-0.116517	0.050034	1.13978	-0.0647931	-0.223264	0	-0.0914605	0.0665265	-0.0421042	-0.0804025	-0.178199	-0.176937	0.629694	2.09	-0.0461651	-0.104705	-0.109309	0.53345	2.09
0.26	-0.00481636	-0.0441424	0.00223529	0.191094	0.958973	-0.225468	0.196759	0.080123	-0.124888	0.300933	0.289935	0.138641	0	0.428207	-0.109111	0.0431841	1.1143	-0.0348273	-0.192496	0	-0.0930432	0.0602032	-0.0338881	-0.0655326	-0.182571	-0.166789	0.6411	2.09	-0.060913	-0.106956	-0.117468	0.513138	2.09
0.27	-0.0042423	-0.0397344	-0.00520495	0.20265	0.960714	-0.224204	0.174269	0.0783597	-0.116318	0.286425	0.294853	0.141846	0	0.448412	-0.102918	0.034635	1.08301	-0.00642866	-0.160082	0	-0.0950705	0.0543553	-0.0253154	-0.0504402	-0.186681	-0.158301	0.652892	2.09	-0.0762292	-0.109464	-0.125969	0.494696	2.09
0.28	-0.00316274	-0.0358068	-0.0131733	0.214219	0.962189	-0.222917	0.151576	0.0767068	-0.107987	0.272378	0.300303	0.145421	0	0.46549	-0.0980909	0.0246743	1.04613	0.0194469	-0.126795	0	-0.0975295	0.0490714	-0.0165023	-0.0351802	-0.190538	-0.151243	0.664921	2.09	-0.0919552	-0.112131	-0.134837	0.477813	2.09
0.29	-0.00174262	-0.0324447	-0.0214514	0.225809	0.963364	-0.22163	0.128917	0.0752215	-0.0999376	0.258951	0.306474	0.149288	0	0.479658	-0.0945746	0.0137622	1.00401	0.0410375	-0.0945906	0	-0.100238	0.0444708	-0.00758337	-0.0198608	-0.194178	-0.145402	0.677144	2.09	-0.107972	-0.114811	-0.144331	0.462326	2.09
0.3	-8.85684e-05	-0.029833	-0.0298953	0.237426	0.964223	-0.220354	0.106209	0.0743751	-0.0904254	0.245795	0.312578	0.150744	0	0.491114	-0.0925739	0.00217259	0.957145	0.0576617	-0.0639555	0	-0.103107	0.0407459	0.00117481	-0.00439767	-0.197681	-0.140164	0.689363	2.09	-0.124423	-0.117073	-0.156612	0.448838	2.09
0.31	0.00107033	-0.0278134	-0.0381397	0.249056	0.964702	-0.21916	0.0848563	0.0733329	-0.08365	0.234261	0.320732	0.155875	0	0.500905	-0.0910208	-0.00871138	0.905998	0.0663288	-0.0396092	0	-0.105325	0.0379176	0.00993644	0.0106003	-0.20125	-0.135611	0.701932	2.09	-0.14066	-0.119514	-0.167062	0.435871	2.09
0.32	0.00214701	-0.0265971	-0.0463444	0.260706	0.964845	-0.218014	0.0639084	0.0728783	-0.0763562	0.223409	0.329305	0.160124	0	0.508501	-0.0908914	-0.0197246	0.851133	0.0702855	-0.0163803	0	-0.10745	0.0360817	0.0183699	0.0256707	-0.204915	-0.13072	0.714293	2.09	-0.157271	-0.121264	-0.181041	0.425402	2.09
0.33	0.00282759	-0.0261732	-0.054315	0.272372	0.964637	-0.21694	0.043723	0.0730068	-0.0687106	0.213331	0.338183	0.163327	0	0.514395	-0.0917355	-0.0301618	0.793114	0.0692674	0.00459652	0	-0.109153	0.0352708	0.0263384	0.0407383	-0.208759	-0.125147	0.726301	2.09	-0.174197	-0.122405	-0.197512	0.417319	2.09
0.34	0.00295558	-0.0266057	-0.0619569	0.284067	0.96408	-0.215945	0.0244462	0.0737999	-0.0610415	0.20406	0.347302	0.165643	0	0.518832	-0.0933923	-0.0395919	0.732524	0.0643185	0.0236271	0	-0.110253	0.0355621	0.0337847	0.0557186	-0.212765	-0.118854	0.737867	2.09	-0.191423	-0.123013	-0.215433	0.41131	2.09
0.35	0.00325749	-0.0276962	-0.0695124	0.295815	0.963246	-0.214995	0.00501217	0.075082	-0.0527303	0.195147	0.356446	0.166609	0	0.520839	-0.0960771	-0.0491894	0.669793	0.0577808	0.04352	0	-0.111581	0.0365558	0.0406633	0.0709722	-0.216832	-0.111276	0.74865	2.09	-0.209076	-0.122827	-0.236491	0.407552	2.09
